<svg width="276" height="280" viewBox="0 0 276 280" fill="none" xmlns="http://www.w3.org/2000/svg">
<path d="M257.005 150.203V114.078C257.005 102.216 246.664 92.5644 233.954 92.5644H142.121C143.161 88.954 143.702 85.2019 143.702 81.3705C143.702 77.7321 143.21 74.1999 142.293 70.824C150.732 79.9978 163.234 85.8264 177.175 85.8264C202.527 85.8264 223.153 66.5759 223.153 42.9132C223.153 19.2505 202.527 0 177.174 0C151.821 0 131.196 19.2505 131.196 42.9132C131.196 46.5515 131.687 50.0844 132.604 53.4597C124.166 44.2858 111.664 38.4573 97.723 38.4573C72.3707 38.4573 51.7452 57.7083 51.7452 81.3705C51.7452 85.2013 52.286 88.9529 53.3266 92.5644H23.2095C10.4994 92.5644 0.159348 102.215 0.159348 114.078V258.486C0.159348 270.349 10.4994 279.999 23.2095 279.999H233.954C246.664 279.999 257.005 270.349 257.005 258.486V222.361C267.595 221.206 275.841 212.785 275.841 202.597V169.969C275.842 159.779 267.595 151.358 257.005 150.203ZM177.174 18.0955C191.836 18.0955 203.765 29.2288 203.765 42.9132C203.765 56.5976 191.836 67.7309 177.174 67.7309C162.512 67.7309 150.584 56.5976 150.584 42.9132C150.584 29.2288 162.512 18.0955 177.174 18.0955ZM97.7236 56.5522C112.385 56.5522 124.314 67.6855 124.314 81.3699C124.314 85.3162 123.34 89.1202 121.467 92.5639H73.9803C72.1082 89.1197 71.1332 85.3162 71.1332 81.3699C71.1338 67.686 83.0617 56.5522 97.7236 56.5522ZM237.616 258.485C237.616 260.371 235.973 261.903 233.953 261.903H23.2089C21.1892 261.903 19.5468 260.37 19.5468 258.485V114.078C19.5468 112.193 21.1898 110.659 23.2089 110.659C27.3884 110.659 228.918 110.659 233.953 110.659C235.973 110.659 237.616 112.192 237.616 114.078V150.063C231.585 150.063 175.254 150.063 169.207 150.063C157.828 150.063 148.57 158.704 148.57 169.324C148.57 176.886 148.57 200.444 148.57 203.24C148.57 213.86 157.828 222.501 169.207 222.501C175.254 222.501 231.585 222.501 237.616 222.501V258.485ZM256.454 202.595C256.454 203.593 255.585 204.405 254.515 204.405C251.455 204.405 174.135 204.405 169.897 204.405C168.828 204.405 167.958 203.594 167.958 202.595V169.968C167.958 168.97 168.828 168.159 169.897 168.159C174.229 168.159 251.512 168.159 254.515 168.159C255.584 168.159 256.454 168.97 256.454 169.968V202.595Z" fill="#4F46E5"/>
</svg>
